<svg width="3300" height="2197" xmlns="http://www.w3.org/2000/svg" xmlns:xlink="http://www.w3.org/1999/xlink" xml:space="preserve" overflow="hidden"><defs><clipPath id="clip0"><rect x="1504" y="1502" width="3300" height="2197"/></clipPath><clipPath id="clip1"><rect x="1504" y="1501" width="3300" height="2198"/></clipPath><clipPath id="clip2"><rect x="1504" y="1501" width="3300" height="2198"/></clipPath><clipPath id="clip3"><rect x="1504" y="1501" width="3300" height="2198"/></clipPath><clipPath id="clip4"><rect x="1504" y="1501" width="3300" height="2198"/></clipPath><clipPath id="clip5"><rect x="1504" y="1501" width="3300" height="2198"/></clipPath><clipPath id="clip6"><rect x="1504" y="1501" width="3300" height="2198"/></clipPath><clipPath id="clip7"><rect x="1504" y="1501" width="3300" height="2198"/></clipPath><clipPath id="clip8"><rect x="1504" y="1501" width="3300" height="2198"/></clipPath><clipPath id="clip9"><rect x="1504" y="1501" width="3300" height="2198"/></clipPath><clipPath id="clip10"><rect x="1504" y="1501" width="3300" height="2198"/></clipPath><clipPath id="clip11"><rect x="1504" y="1501" width="3300" height="2198"/></clipPath><clipPath id="clip12"><rect x="1504" y="1501" width="3300" height="2198"/></clipPath><clipPath id="clip13"><rect x="1504" y="1501" width="3300" height="2198"/></clipPath><clipPath id="clip14"><rect x="1504" y="1501" width="3300" height="2198"/></clipPath><clipPath id="clip15"><rect x="1504" y="1501" width="3301" height="2199"/></clipPath><clipPath id="clip16"><rect x="1504" y="1501" width="3301" height="2199"/></clipPath><clipPath id="clip17"><rect x="1504" y="1501" width="3301" height="2199"/></clipPath><clipPath id="clip18"><rect x="1839" y="2602" width="110" height="97"/></clipPath><clipPath id="clip19"><rect x="1839" y="2602" width="110" height="97"/></clipPath><clipPath id="clip20"><rect x="1839" y="2602" width="110" height="97"/></clipPath><clipPath id="clip21"><rect x="1504" y="1501" width="3301" height="2199"/></clipPath><clipPath id="clip22"><rect x="1504" y="1501" width="3301" height="2199"/></clipPath><clipPath id="clip23"><rect x="1504" y="1501" width="3301" height="2199"/></clipPath><clipPath id="clip24"><rect x="1504" y="1501" width="3301" height="2199"/></clipPath><clipPath id="clip25"><rect x="2225" y="1732" width="107" height="82"/></clipPath><clipPath id="clip26"><rect x="2225" y="1732" width="107" height="82"/></clipPath><clipPath id="clip27"><rect x="2225" y="1732" width="107" height="82"/></clipPath><clipPath id="clip28"><rect x="1504" y="1501" width="3301" height="2199"/></clipPath><clipPath id="clip29"><rect x="1504" y="1501" width="3301" height="2199"/></clipPath><clipPath id="clip30"><rect x="1504" y="1501" width="3301" height="2199"/></clipPath><clipPath id="clip31"><rect x="2682" y="1567" width="112" height="89"/></clipPath><clipPath id="clip32"><rect x="2682" y="1567" width="112" height="89"/></clipPath><clipPath id="clip33"><rect x="2682" y="1567" width="112" height="89"/></clipPath><clipPath id="clip34"><rect x="1504" y="1501" width="3301" height="2199"/></clipPath><clipPath id="clip35"><rect x="1504" y="1501" width="3301" height="2199"/></clipPath><clipPath id="clip36"><rect x="1504" y="1501" width="3301" height="2199"/></clipPath><clipPath id="clip37"><rect x="3118" y="1537" width="111" height="116"/></clipPath><clipPath id="clip38"><rect x="3118" y="1537" width="111" height="116"/></clipPath><clipPath id="clip39"><rect x="3118" y="1537" width="111" height="116"/></clipPath><clipPath id="clip40"><rect x="1504" y="1501" width="3301" height="2199"/></clipPath></defs><g clip-path="url(#clip0)" transform="translate(-1504 -1502)"><g clip-path="url(#clip1)"><path d="M3180.45 1669.1C3723.3 1669.1 4163.36 2109.16 4163.36 2652.01 4163.36 3166.32 3766.87 3593.67 3254 3632.16L3180.45 2652.01Z" stroke="#FFFFFF" stroke-width="6.875" stroke-linejoin="round" stroke-miterlimit="10" fill="#00703C" fill-rule="evenodd"/></g><g clip-path="url(#clip2)"><path d="M3254 3632.16C2712.68 3672.78 2240.92 3266.88 2200.3 2725.56 2188.83 2572.6 2213.3 2419.08 2271.78 2277.28L3180.45 2652.01Z" stroke="#FFFFFF" stroke-width="6.875" stroke-linejoin="round" stroke-miterlimit="10" fill="#ED7D31" fill-rule="evenodd"/></g><g clip-path="url(#clip3)"><path d="M2271.78 2277.28C2323.04 2152.98 2399.26 2040.52 2495.72 1946.85L3180.45 2652.01Z" stroke="#FFFFFF" stroke-width="6.875" stroke-linejoin="round" stroke-miterlimit="10" fill="#BF9000" fill-rule="evenodd"/></g><g clip-path="url(#clip4)"><path d="M2495.72 1946.85C2575.2 1869.68 2667.15 1806.49 2767.69 1759.97L3180.45 2652.01Z" stroke="#FFFFFF" stroke-width="6.875" stroke-linejoin="round" stroke-miterlimit="10" fill="#A5A5A5" fill-rule="evenodd"/></g><g clip-path="url(#clip5)"><path d="M2767.69 1759.97C2828.62 1731.78 2892.28 1709.9 2957.67 1694.68L3180.45 2652.01Z" stroke="#FFFFFF" stroke-width="6.875" stroke-linejoin="round" stroke-miterlimit="10" fill="#5B9BD5" fill-rule="evenodd"/></g><g clip-path="url(#clip6)"><path d="M2957.67 1694.68C3010.41 1682.41 3064.07 1674.52 3118.11 1671.08L3180.45 2652.01Z" stroke="#FFFFFF" stroke-width="6.875" stroke-linejoin="round" stroke-miterlimit="10" fill="#2F5597" fill-rule="evenodd"/></g><g clip-path="url(#clip7)"><path d="M3118.11 1671.08C3138.86 1669.76 3159.66 1669.1 3180.45 1669.1L3180.45 2652.01Z" stroke="#FFFFFF" stroke-width="6.875" stroke-linejoin="round" stroke-miterlimit="10" fill="#FFC000" fill-rule="evenodd"/></g><g clip-path="url(#clip8)"><text fill="#FFFFFF" font-family="Arial,Arial_MSFontService,sans-serif" font-weight="700" font-size="55" transform="matrix(1 0 0 1 3785.59 2593)">49%</text></g><g clip-path="url(#clip9)"><text fill="#FFFFFF" font-family="Arial,Arial_MSFontService,sans-serif" font-weight="700" font-size="55" transform="matrix(1 0 0 1 2412.22 3189)">32%</text></g><g clip-path="url(#clip10)"><text fill="#FFFFFF" font-family="Arial,Arial_MSFontService,sans-serif" font-weight="700" font-size="55" transform="matrix(1 0 0 1 2410.69 2178)">7%</text></g><g clip-path="url(#clip11)"><text fill="#FFFFFF" font-family="Arial,Arial_MSFontService,sans-serif" font-weight="700" font-size="55" transform="matrix(1 0 0 1 2631.14 1931)">5%</text></g><g clip-path="url(#clip12)"><text fill="#FFFFFF" font-family="Arial,Arial_MSFontService,sans-serif" font-weight="700" font-size="55" transform="matrix(1 0 0 1 2846.33 1816)">3%</text></g><g clip-path="url(#clip13)"><text fill="#FFFFFF" font-family="Arial,Arial_MSFontService,sans-serif" font-weight="700" font-size="55" transform="matrix(1 0 0 1 3008.62 1774)">3%</text></g><g clip-path="url(#clip14)"><text fill="#FFFFFF" font-family="Arial,Arial_MSFontService,sans-serif" font-weight="700" font-size="55" transform="matrix(1 0 0 1 3120.35 1724)">1%</text></g><g clip-path="url(#clip15)"><text fill="#00703C" font-family="Arial,Arial_MSFontService,sans-serif" font-weight="700" font-size="60" transform="matrix(1 0 0 1 4336.9 2542)">Commuting</text></g><g clip-path="url(#clip16)"><path d="M58.295 45.5041 58.2949 45.5041 58.2949 45.5041 58.295 45.5041ZM60.2287 41.6C60.6944 41.6664 61.1312 41.8882 61.4287 42.2497L62.4546 43.4965 54.4375 48.5454 53.4116 47.2986C53.1141 46.9371 53.0123 46.5043 53.0882 46.0968L53.1108 46.0432 53.1213 46.0503C54.3221 46.8746 55.9252 46.9431 57.1817 46.3349L58.2949 45.5041 58.9525 44.3606C59.1407 43.7545 59.1204 43.1149 58.903 42.5239L58.6242 42.0283 58.855 41.8829C59.2683 41.6227 59.763 41.5336 60.2287 41.6ZM31.4531 16.2412C29.706 16.2412 28.0829 16.7067 26.7365 17.5039L25.5736 18.3447 25.1847 18.5011 11.1454 27.4544 10.7681 27.8146 9.84841 28.5321C9.55891 28.8656 9.33939 29.2543 9.21385 29.6856L4.93466 44.3877C4.43252 46.113 5.62421 47.8677 7.5964 48.307L7.59638 48.307C9.56857 48.7463 11.5744 47.7038 12.0766 45.9785L16.0579 32.2999 21.1466 29.0547 17.326 43.8827 17.1561 44.3281 12.1913 63.5975 12.147 63.9153 0.881795 80.621C-0.900245 83.2637 0.104024 86.6697 3.12491 88.2286L3.12489 88.2286C6.14574 89.7876 10.0393 88.909 11.8213 86.2664L23.2939 69.2533C23.5166 68.9229 23.6959 68.5807 23.833 68.2316L24.1102 67.2053 24.1743 67.108C24.3477 66.7714 24.4852 66.4147 24.5816 66.0405L27.3549 55.2768 37.6434 66.0881 41.6624 84.3684C42.3249 87.3814 45.654 89.3541 49.0982 88.7746L49.0981 88.7746C52.5423 88.1951 54.7974 85.2828 54.135 82.2699L49.8762 62.8995C49.7106 62.1463 49.3783 61.4581 48.9193 60.8585L48.5263 60.4396 48.3554 60.114C48.172 59.8322 47.9578 59.5606 47.7124 59.3027L34.6541 45.5807 34.7425 45.3824 37.8831 33.1933 39.7355 36.5159C39.9307 36.8659 40.1887 37.1712 40.4919 37.4263L41.0579 37.7623 41.0811 37.786 51.6214 45.0208 51.3352 45.2908C50.9601 45.83 50.9661 46.5355 51.4141 47.08L53.2402 49.2994 45.1019 54.4246 56.314 68.0515 83.0002 51.2455 71.7881 37.6187 63.6497 42.7439 61.8236 40.5245C61.525 40.1615 61.0864 39.9388 60.6187 39.8721 60.1511 39.8055 59.6544 39.8949 59.2394 40.1562L57.7771 41.0771 57.6706 40.9782 45.9301 32.9196 39.3609 21.137 39.2263 20.7569C37.9456 18.1032 34.9475 16.2412 31.4531 16.2412ZM33.9777 0C29.3099 0 25.5259 3.31022 25.5259 7.39359 25.5259 11.4769 29.3099 14.7872 33.9777 14.7872 38.6455 14.7872 42.4294 11.4769 42.4294 7.39359 42.4294 3.31022 38.6455 0 33.9777 0Z" fill="#00703C" fill-rule="evenodd" transform="matrix(-1 0 0 1 4306 2495)"/></g><g clip-path="url(#clip17)"><g clip-path="url(#clip18)"><g clip-path="url(#clip19)"><g clip-path="url(#clip20)"><path d="M83.1252 84.1742C81.2317 83.4213 79.2239 82.9963 77.1877 82.9174L77.1877 82.9174C75.1515 82.9963 73.1436 83.4213 71.2502 84.1742 69.9896 84.6959 68.6528 85.01 67.2918 85.1044L67.2918 85.1044C65.9309 85.01 64.594 84.6959 63.3335 84.1742 61.44 83.4213 59.4321 82.9963 57.396 82.9174L57.396 82.9174C55.3598 82.9963 53.3519 83.4213 51.4585 84.1742 50.1979 84.6959 48.8611 85.01 47.5001 85.1044 46.1391 85.01 44.8023 84.6959 43.5418 84.1742 41.6483 83.4213 39.6404 82.9963 37.6043 82.9174L37.6043 82.9174C35.5681 82.9963 33.5602 83.4213 31.6667 84.1742 30.4061 84.6959 29.0694 85.01 27.7084 85.1044 26.3474 85.01 25.0107 84.6959 23.7501 84.1742 21.8566 83.4213 19.8487 82.9963 17.8125 82.9174L17.8125 82.9174C15.7764 82.9963 13.7685 83.4213 11.875 84.1742 10.6144 84.6959 9.27769 85.01 7.91669 85.1044L7.91669 91.0419C9.95286 90.963 11.9607 90.538 13.8542 89.7851 15.1114 89.2432 16.4482 88.9089 17.8125 88.7955 19.1769 88.9089 20.5137 89.2432 21.7709 89.7851 23.6644 90.538 25.6722 90.963 27.7084 91.0419L27.7084 91.0419C29.7446 90.963 31.7524 90.538 33.6459 89.7851 34.9031 89.2432 36.2399 88.9089 37.6043 88.7955 38.9652 88.8899 40.3021 89.204 41.5626 89.7257 43.4511 90.5035 45.4599 90.9488 47.5001 91.0419 49.5363 90.963 51.5442 90.538 53.4376 89.7851 54.6948 89.2432 56.0316 88.909 57.396 88.7955 58.7603 88.909 60.0971 89.2432 61.3543 89.7851 63.2478 90.538 65.2557 90.963 67.2918 91.0419L67.2918 91.0419C69.328 90.963 71.3359 90.538 73.2293 89.7851 74.4865 89.2432 75.8233 88.9089 77.1877 88.7955 78.5487 88.8899 79.8855 89.204 81.146 89.7257 83.0346 90.5035 85.0433 90.9488 87.0835 91.0419L87.0835 85.1044C85.7226 85.01 84.3857 84.6959 83.1252 84.1742Z" fill="#F47738" transform="matrix(1.14737 0 0 1 1839 2603)"/><path d="M48.7965 23.2355C48.534 24.6653 49.4806 26.0373 50.9104 26.2996 52.0055 26.5006 53.1086 25.9909 53.6652 25.0266L53.6652 25.0266C55.8918 35.6449 55.0309 46.5006 53.7444 54.3184L53.7444 54.3184C48.2385 54.5945 42.8233 55.8302 37.7428 57.9699L37.7428 57.9699C37.7428 57.9699 37.0897 57.9699 36.0308 57.9699L36.0308 57.9699C34.2695 52.5031 33.4954 46.7663 33.7449 41.0282L33.7449 41.0282C34.2766 41.7087 35.2591 41.8293 35.9396 41.2976 36.379 40.9542 36.6022 40.4029 36.5256 39.8506 36.5164 39.7596 36.4964 39.6698 36.4662 39.5834L36.4662 39.5834C38.5048 41.7902 39.0293 43.9871 39.7022 45.0163 39.8158 45.1835 40.0435 45.227 40.2108 45.1134 40.2799 45.0664 40.331 44.9973 40.3553 44.9173 41.1041 42.5653 40.898 40.0133 39.7813 37.8121 39.1161 36.7166 38.0519 35.922 36.8126 35.5954L36.8126 35.5954C39.8012 36.1509 42.6791 37.1904 45.3329 38.673 45.5174 38.7798 45.7535 38.7167 45.8603 38.5322 45.9268 38.4171 45.9294 38.2759 45.8673 38.1584 44.9371 36.2485 42.76 32.5277 39.7912 31.8943 36.8225 31.261 34.299 34.0516 33.5569 34.8631 33.5307 34.891 33.4869 34.8924 33.459 34.8663 33.4419 34.8502 33.434 34.8268 33.4381 34.8037 34.1726 32.7892 33.3706 30.5371 31.5282 29.4402 29.7272 28.3912 26.2636 29.1928 24.3339 29.7865 24.1262 29.8345 23.9968 30.0417 24.0448 30.2495 24.0779 30.3931 24.1901 30.5055 24.3339 30.5386 26.4032 31.0558 28.3727 31.9119 30.1626 33.072L30.1626 33.072C28.252 32.0462 25.9128 32.2645 24.2251 33.6261 22.6417 34.8433 21.5136 37.6636 20.9396 39.4053 20.8591 39.6026 20.9537 39.828 21.151 39.9085 21.2964 39.9679 21.4632 39.9332 21.573 39.8209 23.2621 38.2848 25.2448 37.1066 27.4016 36.3574L27.4016 36.3574C26.4884 37.0077 25.7974 37.9233 25.4225 38.9798 24.7199 40.7709 25.1652 43.3439 25.5808 44.9173 25.6401 45.1277 25.8588 45.2502 26.0692 45.1909 26.2018 45.1535 26.3054 45.0499 26.3428 44.9173 26.8252 43.1218 27.6594 41.44 28.7969 39.9694L28.7969 39.9694C28.7209 40.1611 28.6872 40.367 28.698 40.573 28.815 41.4286 29.6033 42.0274 30.4589 41.9104 30.4623 41.9099 30.4659 41.9094 30.4693 41.909 30.8123 41.8568 31.1288 41.6933 31.3699 41.4439L31.3699 41.4439C31.1601 47.021 31.425 52.6059 32.1615 58.1382L32.1615 58.1382C26.7188 58.5439 18.8714 59.9887 16.823 64.6694L17.8125 64.5903C19.8487 64.6691 21.8566 65.0942 23.7501 65.847 25.0091 66.3735 26.3466 66.6878 27.7084 66.7772L27.7084 66.7772C29.0702 66.6878 30.4077 66.3735 31.6667 65.847 33.5602 65.0942 35.5681 64.6691 37.6043 64.5903L37.6043 64.5903C39.6404 64.6691 41.6483 65.0942 43.5418 65.847 44.8008 66.3735 46.1383 66.6878 47.5001 66.7772L47.5001 66.7772C48.8619 66.6878 50.1994 66.3735 51.4585 65.847 53.3519 65.0942 55.3598 64.6691 57.396 64.5903L57.396 64.5903C59.4321 64.6691 61.44 65.0942 63.3335 65.847 64.5925 66.3735 65.9301 66.6878 67.2918 66.7772L67.2918 66.7772C68.6536 66.6878 69.9911 66.3735 71.2502 65.847 73.0802 65.1263 75.0154 64.7085 76.9799 64.6101L76.9799 64.6101C72.8327 59.3675 66.8939 55.843 60.3054 54.7142L60.3054 54.7142C60.2163 48.6876 59.8205 35.2194 57.6632 25.0959L57.6632 25.0959C58.2215 25.5387 58.9361 25.7352 59.6423 25.6402 60.4594 25.4996 61.165 24.9878 61.5522 24.2547 61.9296 23.6118 61.9916 22.8314 61.7205 22.137L61.7205 22.137C63.982 24.3391 65.7817 26.9699 67.0147 29.8756 67.1607 30.2115 67.5513 30.3653 67.8872 30.2193 68.104 30.1251 68.2542 29.9224 68.2814 29.6876 68.5882 26.9167 68.7366 22.5428 67.1335 19.7323 66.2618 18.1318 64.9409 16.8212 63.3335 15.962 63.284 15.962 63.3335 15.873 63.3335 15.8828 67.028 16.6374 70.5362 18.1173 73.6549 20.237 73.9434 20.4625 74.3601 20.4113 74.5856 20.1226 74.7486 19.9139 74.7717 19.6281 74.6444 19.3959 73.2788 16.6349 70.7356 12.2115 67.8163 10.5589 63.6897 8.22346 60.0777 9.43075 57.4158 11.3407 57.4158 11.3407 57.4158 11.3407 57.4158 11.3407 60.2034 8.85591 63.3966 6.8677 66.8564 5.46251 67.1936 5.33421 67.3628 4.9569 67.2345 4.61978 67.1502 4.39824 66.9525 4.23977 66.7179 4.20574 63.3335 3.65157 57.396 3.1172 54.6746 5.29428 50.6569 8.47085 51.9434 12.8646 52.8241 14.8438 52.8432 14.8711 52.8366 14.9088 52.8092 14.9279 52.7819 14.947 52.7442 14.9404 52.7251 14.9131 51.1121 13.2703 46.6095 9.40106 41.5032 11.2615 36.7235 13.0032 33.9824 19.7027 32.874 23.1365 32.7687 23.4815 32.9631 23.8465 33.3082 23.9518 33.4964 24.0092 33.7004 23.9788 33.8636 23.8688 37.9016 20.7991 42.4097 18.403 47.2131 16.7735L47.2131 16.8329C45.2355 17.6628 43.6497 19.2168 42.7798 21.1771 40.8006 25.8777 42.4928 30.8157 43.4824 33.0522 43.6243 33.3719 43.9985 33.5161 44.3182 33.3742 44.4617 33.3105 44.5765 33.1958 44.6402 33.0522 45.5011 31.1621 45.897 27.4016 48.747 23.285Z" fill="#F47738" transform="matrix(1.14737 0 0 1 1839 2603)"/><path d="M83.1252 72.2991C81.2317 71.5463 79.2239 71.1212 77.1877 71.0424L77.1877 71.0424C75.1515 71.1212 73.1436 71.5463 71.2502 72.2991 69.9896 72.8208 68.6528 73.1349 67.2918 73.2293L67.2918 73.2293C65.9309 73.1349 64.594 72.8208 63.3335 72.2991 61.44 71.5463 59.4321 71.1212 57.396 71.0424L57.396 71.0424C55.3598 71.1212 53.3519 71.5463 51.4585 72.2991 50.1979 72.8208 48.8611 73.1349 47.5001 73.2293 46.1391 73.1349 44.8023 72.8208 43.5418 72.2991 41.6483 71.5463 39.6404 71.1212 37.6043 71.0424L37.6043 71.0424C35.5681 71.1212 33.5602 71.5463 31.6667 72.2991 30.4061 72.8208 29.0694 73.1349 27.7084 73.2293 26.3474 73.1349 25.0107 72.8208 23.7501 72.2991 21.8566 71.5463 19.8487 71.1212 17.8125 71.0424L17.8125 71.0424C15.7764 71.1212 13.7685 71.5463 11.875 72.2991 10.6144 72.8208 9.27769 73.1349 7.91669 73.2293L7.91669 79.1669C9.95286 79.088 11.9607 78.663 13.8542 77.9101 15.1114 77.3682 16.4482 77.0339 17.8125 76.9205 19.1769 77.0339 20.5137 77.3682 21.7709 77.9101 23.6644 78.663 25.6722 79.088 27.7084 79.1669L27.7084 79.1669C29.7446 79.088 31.7524 78.663 33.6459 77.9101 34.9031 77.3682 36.2399 77.0339 37.6043 76.9205 38.9652 77.0149 40.3021 77.329 41.5626 77.8507 43.4511 78.6284 45.4599 79.0737 47.5001 79.1669 49.5363 79.088 51.5442 78.663 53.4376 77.9101 54.6948 77.3682 56.0316 77.034 57.396 76.9205 58.7603 77.034 60.0971 77.3682 61.3543 77.9101 63.2478 78.663 65.2557 79.088 67.2918 79.1669L67.2918 79.1669C69.328 79.088 71.3359 78.663 73.2293 77.9101 74.4865 77.3682 75.8233 77.0339 77.1877 76.9205 78.5487 77.0149 79.8855 77.329 81.146 77.8507 83.0346 78.6284 85.0433 79.0737 87.0835 79.1669L87.0835 73.2293C85.7226 73.1349 84.3857 72.8208 83.1252 72.2991Z" fill="#F47738" transform="matrix(1.14737 0 0 1 1839 2603)"/></g></g></g></g><g clip-path="url(#clip21)"><text fill="#F47738" font-family="Arial,Arial_MSFontService,sans-serif" font-weight="700" font-size="55" transform="matrix(1 0 0 1 1949.35 2676)">Leisure</text></g><g clip-path="url(#clip22)"><text fill="#BF9000" font-family="Arial,Arial_MSFontService,sans-serif" font-weight="700" font-size="55" transform="matrix(1 0 0 1 2150.35 2031)">Education</text></g><g clip-path="url(#clip23)"><path d="M63.6279 35.3072 69.1904 54.1483C69.5154 54.9772 69.3747 55.8861 68.9683 56.486 68.442 56.9908 67.4364 57.4858 66.1378 57.1968 65.3468 56.9675 65.251 56.3974 65.1205 55.7015L59.4258 37.1441C60.8698 37.7067 62.6973 37.1 63.6279 35.3072ZM59.5332 30.6936C60.312 30.6023 61.0734 30.8199 61.681 31.2029 62.8961 31.9689 62.9544 33.5749 62.7388 34.5629 62.5232 35.5509 61.1192 36.2416 60.4272 36.1963 59.7351 36.1509 58.8706 35.9252 58.5867 34.2908 59.7518 36.4435 60.3684 35.653 61.096 35.4792 61.8236 35.3053 62.1932 33.9411 61.8468 32.9491 61.5003 31.9572 60.0829 31.751 59.3699 31.8841 58.6569 32.0171 57.728 32.8304 57.5688 33.7477 57.4096 34.665 57.7101 34.8167 58.4146 37.3878 59.119 39.959 62.2564 49.3199 61.7955 49.1747 61.3346 49.0295 56.4046 38.0482 55.6491 36.5166 54.8937 34.9849 55.2793 35.175 55.5773 34.4435L57.2814 32.0372C57.9584 31.185 58.7545 30.7849 59.5332 30.6936ZM60.6101 29.6136C60.1899 29.5376 59.7509 29.54 59.3017 29.6306 58.7028 29.7514 58.0856 30.0293 57.47 30.4879 56.6492 31.0995 55.8313 32.0326 55.0637 33.3436 54.0283 34.9963 53.6181 34.8012 54.3566 36.5735L57.0763 42.1769 53.1774 45.0939 46.8147 35.999C45.8287 34.826 45.3979 33.7966 43.8565 32.4802 42.4204 31.4768 40.6889 30.8909 38.8253 30.8909L8.95968 30.8909C4.6111 30.8909 0.982903 34.0808 0.143778 38.3214L0.134718 38.4146C0.0898317 52.4932 0.0449457 66.5719 0 80.6505 0 83.2356 1.77315 85.3924 4.13035 85.8913L5.1728 85.9999 6.21532 85.8913C7.39392 85.6419 8.42648 84.9779 9.16438 84.0533L9.97931 82.5844 9.97931 50.2555C9.86658 43.0015 12.3304 42.5 12.634 50.2555L12.634 77.8435 12.6706 78.2194C13.3076 81.4386 16.0619 83.8602 19.3632 83.8602L37.4401 83.8602C41.2129 83.8602 43.5773 80.2667 43.5773 76.365L43.2997 46.7409C44.4092 48.3268 46.9068 53.7878 48.0163 55.3737 49.2897 57.1786 49.7298 57.3447 50.94 57.5704 52.3825 57.9585 53.9754 57.7021 55.2774 56.728L61.7783 51.8641 64.265 56.9872C64.3607 57.5287 64.7901 57.7542 65.0527 58.1377 66.2674 58.9141 70.0144 58.9883 70.6549 55.2727 70.7017 54.6613 69.3622 50.8038 69.1821 50.5877 69.0123 50.0262 68.8264 49.3871 68.6278 48.69L68.175 47.0782 69.8588 45.8185C72.1734 44.0867 72.6923 40.7424 71.0177 38.3488L71.0178 38.3488C69.9711 36.8527 68.3154 36.0822 66.6557 36.1373 66.1578 36.1539 65.6595 36.2448 65.1773 36.4127L65.1276 36.4392 65.0837 36.2902C64.5885 34.7004 64.1051 33.2648 63.659 32.1385 62.9627 30.7736 61.8706 29.8414 60.6101 29.6136ZM20.9154 9.5528 20.4343 9.96237C18.6481 11.8054 17.5432 14.3515 17.5432 17.1638 17.5432 22.7885 21.9626 27.3482 27.4141 27.3482 31.5028 27.3482 35.0108 24.7833 36.5093 21.128L36.9919 19.524ZM20.5863 0 19.7206 1.49141 28.8016 7.12372 27.4141 6.97943C26.0512 6.97943 24.7528 7.26437 23.5719 7.77978L22.3922 8.44045 37.2377 17.648 37.285 17.1638C37.285 15.0546 36.6635 13.095 35.5992 11.4696L35.3932 11.212 44.4399 16.8231 45.3056 15.3317Z" fill="#BF9000" fill-rule="evenodd" transform="matrix(-1 0 0 1 2120 1963)"/></g><g clip-path="url(#clip24)"><g clip-path="url(#clip25)"><g clip-path="url(#clip26)"><g clip-path="url(#clip27)"><path d="M26.4791 26.4791 17.0833 26.4791 17.0833 20.5 26.4791 20.5 26.4791 26.4791ZM39.2916 20.5 39.2916 26.4791 29.8958 26.4791 29.8958 20.5 39.2916 20.5ZM52.104 20.5 52.104 26.4791 42.7082 26.4791 42.7082 20.5 52.104 20.5ZM64.9165 20.5 64.9165 26.4791 55.5207 26.4791 55.5207 20.5 64.9165 20.5ZM64.9165 35.8749 55.5207 35.8749 55.5207 29.8958 64.9165 29.8958 64.9165 35.8749ZM64.9165 43.1353 55.5207 43.9895 55.5207 39.2916 64.9165 39.2916 64.9165 43.1353ZM26.4791 39.2916 26.4791 46.552 17.0833 47.4061 17.0833 39.2916 26.4791 39.2916ZM26.4791 35.8749 17.0833 35.8749 17.0833 29.8958 26.4791 29.8958 26.4791 35.8749ZM39.2916 35.8749 29.8958 35.8749 29.8958 29.8958 39.2916 29.8958 39.2916 35.8749ZM42.7082 35.8749 42.7082 29.8958 52.104 29.8958 52.104 35.8749 42.7082 35.8749ZM39.2916 45.4416 29.8958 46.2957 29.8958 39.2916 39.2916 39.2916 39.2916 45.4416ZM42.7082 39.2916 52.104 39.2916 52.104 44.2457 42.7082 45.0999 42.7082 39.2916ZM70.0415 47.8332 70.0415 15.375 17.0833 15.375 17.0833 14.5208C17.0833 10.25 13.6666 6.83332 9.39581 6.83332 7.94373 6.83332 6.83332 7.94373 6.83332 9.39581 6.83332 10.8479 7.94373 11.9583 9.39581 11.9583 10.8479 11.9583 11.9583 13.0687 11.9583 14.5208L11.9583 57.229C11.9583 61.4999 15.375 64.9165 19.6458 64.9165L22.2083 64.9165 59.7915 64.9165 67.479 64.9165C68.9311 64.9165 70.0415 63.8061 70.0415 62.354 70.0415 60.9019 68.9311 59.7915 67.479 59.7915L19.6458 59.7915C18.1937 59.7915 17.0833 58.6811 17.0833 57.229L17.0833 52.5311 70.0415 47.8332Z" fill="#A5A5A5" transform="matrix(-1.30488 0 0 1 2332 1732)"/><path d="M27.3333 70.0415C27.3333 72.8719 25.0387 75.1665 22.2083 75.1665 19.3778 75.1665 17.0833 72.8719 17.0833 70.0415 17.0833 67.211 19.3778 64.9165 22.2083 64.9165 25.0387 64.9165 27.3333 67.211 27.3333 70.0415Z" fill="#A5A5A5" transform="matrix(-1.30488 0 0 1 2332 1732)"/><path d="M64.9165 70.0415C64.9165 72.8719 62.622 75.1665 59.7915 75.1665 56.9611 75.1665 54.6665 72.8719 54.6665 70.0415 54.6665 67.211 56.9611 64.9165 59.7915 64.9165 62.622 64.9165 64.9165 67.211 64.9165 70.0415Z" fill="#A5A5A5" transform="matrix(-1.30488 0 0 1 2332 1732)"/></g></g></g></g><g clip-path="url(#clip28)"><text fill="#A5A5A5" font-family="Arial,Arial_MSFontService,sans-serif" font-weight="700" font-size="55" transform="matrix(1 0 0 1 2336.7 1794)">Shopping</text></g><g clip-path="url(#clip29)"><text fill="#5694CA" font-family="Arial,Arial_MSFontService,sans-serif" font-weight="700" font-size="55" transform="matrix(1 0 0 1 2196.06 1633)">Personal Business</text></g><g clip-path="url(#clip30)"><g clip-path="url(#clip31)"><g clip-path="url(#clip32)"><g clip-path="url(#clip33)"><path d="M50.7502 45.7658C50.7502 47.7596 49.1189 49.3908 47.1252 49.3908L43.5002 49.3908C41.5064 49.3908 39.8751 47.7596 39.8751 45.7658L39.8751 43.9533 9.06253 43.9533 9.06253 69.3284C9.06253 71.3221 10.6938 72.9534 12.6875 72.9534L77.9378 72.9534C79.9315 72.9534 81.5628 71.3221 81.5628 69.3284L81.5628 43.9533 50.7502 43.9533 50.7502 45.7658Z" fill="#5694CA" transform="matrix(1.27586 0 0 1 2683 1568)"/><path d="M77.9378 22.2032 59.8127 22.2032 59.8127 16.3126C59.8127 12.7782 57.0033 9.96879 53.469 9.96879L37.1564 9.96879C33.622 9.96879 30.8126 12.7782 30.8126 16.3126L30.8126 22.2032 12.6875 22.2032C10.6938 22.2032 9.06253 23.8345 9.06253 25.8282L9.06253 40.3283 39.8751 40.3283 39.8751 38.5158 50.7502 38.5158 50.7502 40.3283 81.5628 40.3283 81.5628 25.8282C81.5628 23.8345 79.9315 22.2032 77.9378 22.2032M36.2501 22.2032 36.2501 16.3126C36.2501 15.7688 36.6126 15.4063 37.1564 15.4063L53.469 15.4063C54.0127 15.4063 54.3752 15.7688 54.3752 16.3126L54.3752 22.2032 36.2501 22.2032Z" fill="#5694CA" transform="matrix(1.27586 0 0 1 2683 1568)"/></g></g></g></g><g clip-path="url(#clip34)"><text fill="#2F5597" font-family="Arial,Arial_MSFontService,sans-serif" font-weight="700" font-size="55" transform="matrix(1 0 0 1 2848.8 1575)">Business</text></g><g clip-path="url(#clip35)"><path d="M8.74617 40.3964 8.74617 41.6781 1.83667 41.6781 1.83667 40.3964ZM14.4981 28.6412 15.5674 33.2584 15.6273 33.2584 14.1735 50.7632 7.90872 28.6412ZM25.706 28.6412 19.382 50.9721 17.9108 33.2584 17.9707 33.2584 19.0401 28.6412ZM26.6823 27.7916 7.31784 27.7916C3.27633 27.7916 0 31.5555 0 36.1985L0 80.5929C0 85.2359 3.27633 88.9997 7.31784 88.9997L26.6823 88.9997C30.7238 88.9997 34 85.2359 34 80.5929L34 36.1985C34 31.5555 30.7238 27.7916 26.6823 27.7916ZM17 0C10.7222 0 5.63298 5.48508 5.63298 12.2513 5.63298 19.0175 10.7222 24.5026 17 24.5026 23.2779 24.5026 28.3671 19.0175 28.3671 12.2513 28.3671 5.48508 23.2779 0 17 0Z" fill="#2F5597" fill-rule="evenodd" transform="matrix(-1 0 0 1 2984 1589)"/></g><g clip-path="url(#clip36)"><g clip-path="url(#clip37)"><g clip-path="url(#clip38)"><g clip-path="url(#clip39)"><path d="M51.6771 17.1875C51.6771 21.6173 48.086 25.2083 43.6562 25.2083 39.2265 25.2083 35.6354 21.6173 35.6354 17.1875 35.6354 12.7577 39.2265 9.16667 43.6562 9.16667 48.086 9.16667 51.6771 12.7577 51.6771 17.1875Z" fill="#FFC000" transform="matrix(1 0 0 1.03636 3118 1538)"/><path d="M64.1667 61.1875 58.7812 34.1458C56.6042 31.7396 53.8542 29.9063 50.6458 28.7604 48.4688 27.9583 46.0625 27.5 43.5417 27.5 41.0208 27.5 38.7292 27.9583 36.4375 28.7604 33.3438 29.9063 30.5938 31.7396 28.3021 34.1458L22.9167 61.1875C22.5729 63.0208 23.7188 64.8542 25.6667 65.1979 25.8958 65.1979 26.125 65.3125 26.3542 65.3125 27.9583 65.3125 29.4479 64.1667 29.6771 62.5625L34.4896 39.3021 34.4896 100.833 41.3646 100.833 41.3646 65.3125 45.9479 65.3125 45.9479 100.833 52.8229 100.833 52.8229 39.3021 57.5208 62.5625C57.75 64.1667 59.2396 65.3125 60.8438 65.3125 61.0729 65.3125 61.3021 65.3125 61.5313 65.1979 63.3646 64.8542 64.625 63.0208 64.1667 61.1875Z" fill="#FFC000" transform="matrix(1 0 0 1.03636 3118 1538)"/><path d="M80.3229 64.1667C80.3229 67.3308 77.7579 69.8958 74.5938 69.8958 71.4296 69.8958 68.8646 67.3308 68.8646 64.1667 68.8646 61.0025 71.4296 58.4375 74.5938 58.4375 77.7579 58.4375 80.3229 61.0025 80.3229 64.1667Z" fill="#FFC000" transform="matrix(1 0 0 1.03636 3118 1538)"/><path d="M86.9688 85.0208 82.9583 75.3958C81.5833 73.4479 79.4063 71.9583 77 71.2708 76.3125 71.1562 75.3958 71.0417 74.5938 71.0417L68.8646 71.0417 62.7917 60.7292C62.1042 59.5833 60.7292 59.2396 59.6979 59.9271 58.5521 60.6146 58.2083 61.9896 58.8958 63.0208L68.8646 79.9792 68.8646 100.833 73.4479 100.833 73.4479 87.0833 75.7396 87.0833 75.7396 100.833 80.3229 100.833 80.3229 80.8958 82.8438 86.8542C83.1875 87.7708 84.1042 88.2292 84.9062 88.2292 85.25 88.2292 85.4792 88.2292 85.8229 88 86.9688 87.5417 87.5417 86.1667 86.9688 85.0208Z" fill="#FFC000" transform="matrix(1 0 0 1.03636 3118 1538)"/></g></g></g></g><g clip-path="url(#clip40)"><text fill="#FFC000" font-family="Arial,Arial_MSFontService,sans-serif" font-weight="700" font-size="55" transform="matrix(1 0 0 1 3231.73 1624)">Other Escort</text></g></g></svg>